<svg xmlns="http://www.w3.org/2000/svg" viewBox="0 0 32 32" fill="none">
  <rect width="32" height="32" rx="6" fill="#0f172a"/>
  <path d="M16 6a10 10 0 0 1 0 20 10 10 0 0 1 0-20z" stroke="#334155" stroke-width="1.5" fill="none"/>
  <path d="M16 6v4M16 22v4M6 16h4M22 16h4" stroke="#475569" stroke-width="1" stroke-linecap="round"/>
  <path d="M16 6a10 10 0 0 1 8.66 5 10 10 0 0 1 0 10 10 10 0 0 1-8.66 5" stroke="#22c55e" stroke-width="1.5" fill="none" stroke-linecap="round"/>
  <path d="M16 6a10 10 0 0 0-8.66 5 10 10 0 0 0 0 10 10 10 0 0 0 8.66 5" stroke="#ef4444" stroke-width="1.5" fill="none" stroke-linecap="round"/>
  <line x1="16" y1="16" x2="20" y2="10" stroke="#f8fafc" stroke-width="1.2" stroke-linecap="round"/>
</svg>
